<svg xmlns="http://www.w3.org/2000/svg" width="20.969" height="25.44" viewBox="0 0 20.969 25.44">
  <g id="notifications" transform="translate(0.65 0.65)">
    <path id="Path_59" data-name="Path 59" d="M48.085,24.14A2.321,2.321,0,0,0,50.4,21.826H45.771A2.321,2.321,0,0,0,48.085,24.14ZM55.605,16.2V9.835A7.445,7.445,0,0,0,49.82,2.545v-.81a1.736,1.736,0,0,0-3.471,0v.81a7.445,7.445,0,0,0-5.785,7.289V16.2L38.25,18.512v1.157H57.919V18.512Z" transform="translate(-38.25)" fill="none" stroke="#777" stroke-width="1.3"/>
    <path id="Path_5668" data-name="Path 5668" d="M12.439,22.25H7.955L9.066,24l2.355-.082Z" transform="translate(-0.189 -0.037)" fill="#777"/>
  </g>
</svg>
